<?xml version="1.0" standalone="no"?>
<!DOCTYPE svg PUBLIC "-//W3C//DTD SVG 20010904//EN"
 "http://www.w3.org/TR/2001/REC-SVG-20010904/DTD/svg10.dtd">
<svg version="1.0" xmlns="http://www.w3.org/2000/svg"
 width="241.000000pt" height="61.000000pt" viewBox="0 0 241.000000 61.000000"
 preserveAspectRatio="xMidYMid meet">

<g transform="translate(0.000000,61.000000) scale(0.100000,-0.100000)"
fill="#000000" stroke="none">
<path d="M1133 490 c-67 -40 -97 -162 -55 -219 26 -35 84 -41 124 -11 33 24
35 15 13 -52 -18 -52 -65 -101 -91 -96 -17 3 -22 14 -42 87 -4 13 -13 26 -21
29 -11 4 -13 -4 -8 -39 11 -83 85 -114 148 -62 64 54 88 154 47 195 -21 21
-22 21 -32 3 -59 -99 -126 -100 -126 -2 0 53 29 124 62 152 16 14 33 25 36 25
23 -1 37 -25 42 -72 3 -38 9 -53 20 -53 32 0 24 81 -12 115 -27 25 -64 25
-105 0z"/>
<path d="M1263 348 c2 -9 19 -12 48 -10 68 6 72 22 5 22 -42 0 -56 -3 -53 -12z"/>
</g>
</svg>
