<svg width="97" opacity="0.3" height="20" viewBox="0 0 99 20" fill="none" xmlns="http://www.w3.org/2000/svg">
<path fill-rule="evenodd" clip-rule="evenodd" d="M0.162109 4C8.09389 4 13.1817 2.89195 20.9661 0H14.745C9.93492 1.42564 5.80295 2 0.162109 2V4ZM22.035 19.5983C21.6729 19.7359 21.3169 19.8697 20.9663 20H14.7452C16.7715 19.3995 18.918 18.6479 21.3484 17.7245C21.5889 17.6331 22.2254 17.3904 22.6617 17.224L23.083 17.0633C32.7123 13.3974 38.8298 12 49.265 12C59.6376 12 64.868 13.2782 74.1811 17.0715C77.2191 18.309 79.8001 19.2694 82.2659 20H76.1524C75.2873 19.6675 74.3902 19.3108 73.4516 18.9285C64.3512 15.2218 59.3518 14 49.265 14C39.0977 14 33.1983 15.3476 23.7708 18.9367L23.3504 19.097C22.9141 19.2634 22.2766 19.5065 22.035 19.5983ZM76.1521 0C83.8708 2.96643 89.0401 4 98.3673 4V2C91.6479 2 87.1861 1.45781 82.2656 0H76.1521ZM22.0348 9.59833C13.6342 12.7899 8.45114 14 0.162109 14V12C8.17912 12 13.1483 10.8398 21.3482 7.7245C21.5885 7.63321 22.2241 7.39078 22.6603 7.22441C22.867 7.14558 23.0289 7.08383 23.0828 7.06332C32.7121 3.39739 38.8296 2 49.2648 2C59.6375 2 64.8678 3.27823 74.1809 7.07152C83.2813 10.7782 88.2807 12 98.3675 12V14C87.9949 14 82.7645 12.7218 73.4514 8.92848C64.351 5.22177 59.3516 4 49.2648 4C39.0975 4 33.1982 5.34756 23.7706 8.93668C23.7173 8.95698 23.5563 9.01837 23.3505 9.09687C22.9143 9.26325 22.2765 9.5065 22.0348 9.59833Z" fill="#4A4A4A"/>
</svg>
